# xmcd CD database file
#
# Track frame offsets:
#	150
#	21661
#	44494
#	63601
#	81791
#	104332
#	121719
#	134417
#	155573
#	175164
#	192782
#	212959
#	232417
#	262225
#	289825
#	303779
#	321381
#	339608
#
# Disc length: 4582 seconds
#
# Revision: 0
# Processed by: cddbd v1.5.2PL0 Copyright (c) Steve Scherf et al.
# Submitted via: CDex 1.51
#
DISCID=1c11e412
DTITLE=Tom Waits - Blue Crack Of Dawn
DYEAR=2007
DGENRE=Blues
TTITLE0=Playin' Hooky (Foreign Affairs Sessions July-Aug 1977)
TTITLE1=2.19 (Early Take)
TTITLE2=Buzz Fledderjohn (Early Take)
TTITLE3=No One Can Forgive Me But My Baby (Alternate Recording)
TTITLE4=I'm Not Your Fool Anymore (Alternate Master Recording)
TTITLE5=Downtown Train (Alternate Master Recording)
TTITLE6=What Else Is New (Outtake Small Change Sessions, July 15th 1976)
TTITLE7=The One That Got Away (Rec. At The Shaboo, Hartford, Connecticut, May 1976)
TTITLE8=Earth Died Screaming (Florence, Italy, July 24th 1999)
TTITLE9=Way Down In The Mule (Bonus Track)
TTITLE10=Dead And Lovely (Bonus Track)
TTITLE11=Who's Been Talking - Till The Money Runs Out (Bonus Track)
TTITLE12=Don't Go Into That Barn (Bonus Track)
TTITLE13=Shake It (Bonus Track)
TTITLE14=Lie To Me Baby (Bonus Track)
TTITLE15=Whistlin' Past The Graveyard (Bonus Track)
TTITLE16=Time (Bonus Track)
TTITLE17=Raf's Theme (Taken From Streetwise Soundtrack)
EXTD=YEAR: 2007
EXTT0=
EXTT1=
EXTT2=
EXTT3=
EXTT4=
EXTT5=
EXTT6=
EXTT7=
EXTT8=
EXTT9=
EXTT10=
EXTT11=
EXTT12=
EXTT13=
EXTT14=
EXTT15=
EXTT16=
EXTT17=
PLAYORDER=
